<?xml version="1.0" encoding="UTF-8" standalone="no"?>
<!-- Created with Inkscape (http://www.inkscape.org/) -->

<svg
   width="285.21899mm"
   height="116.28548mm"
   viewBox="0 0 285.21899 116.28548"
   version="1.1"
   id="svg5"
   inkscape:version="1.1.2 (0a00cf5339, 2022-02-04)"
   sodipodi:docname="logo-tight.svg"
   inkscape:export-filename="/home/michael/Desktop/logo.png"
   inkscape:export-xdpi="96"
   inkscape:export-ydpi="96"
   xmlns:inkscape="http://www.inkscape.org/namespaces/inkscape"
   xmlns:sodipodi="http://sodipodi.sourceforge.net/DTD/sodipodi-0.dtd"
   xmlns="http://www.w3.org/2000/svg"
   xmlns:svg="http://www.w3.org/2000/svg">
  <sodipodi:namedview
     id="namedview7"
     pagecolor="#ffffff"
     bordercolor="#666666"
     borderopacity="1.0"
     inkscape:pageshadow="2"
     inkscape:pageopacity="0.0"
     inkscape:pagecheckerboard="0"
     inkscape:document-units="mm"
     showgrid="false"
     inkscape:zoom="0.54122434"
     inkscape:cx="719.6646"
     inkscape:cy="217.10036"
     inkscape:window-width="1316"
     inkscape:window-height="704"
     inkscape:window-x="0"
     inkscape:window-y="0"
     inkscape:window-maximized="1"
     inkscape:current-layer="layer1"
     fit-margin-top="0"
     fit-margin-left="0"
     fit-margin-right="0"
     fit-margin-bottom="0" />
  <defs
     id="defs2">
    <rect
       x="-183.28279"
       y="17.406614"
       width="486.44028"
       height="116.23423"
       id="rect21210" />
    <rect
       x="-247.8777"
       y="265.2373"
       width="604.01965"
       height="116.67368"
       id="rect2361" />
    <rect
       x="154.24448"
       y="332.81592"
       width="139.68748"
       height="77.112839"
       id="rect2753" />
    <rect
       x="54.231426"
       y="187.88577"
       width="227.52574"
       height="127.54612"
       id="rect59893" />
    <rect
       x="150.40942"
       y="249.43224"
       width="714.93457"
       height="217.13367"
       id="rect8217" />
  </defs>
  <g
     inkscape:label="Layer 1"
     inkscape:groupmode="layer"
     id="layer1"
     transform="translate(-5.8904959,-46.857259)">
    <g
       id="g39638">
      <g
         aria-label="TIGER  MOTH"
         transform="matrix(0.62233666,0,0,0.62233666,119.11793,22.672322)"
         id="text21208"
         style="font-size:96px;line-height:1.25;font-family:'Ubuntu Condensed';-inkscape-font-specification:'Ubuntu Condensed, ';white-space:pre;shape-inside:url(#rect21210)">
        <path
           d="m -143.7312,40.397501 v 7.392 h -14.784 V 106.9255 h -8.64 V 47.789501 h -14.784 v -7.392 z"
           id="path39640" />
        <path
           d="m -134.32333,40.397501 h 8.64 V 106.9255 h -8.64 z"
           id="path39642" />
        <path
           d="m -112.33938,73.613501 q 0,-9.408 1.728,-16.032 1.728,-6.624 4.896,-10.752 3.264,-4.224 7.775995,-6.048 4.608,-1.92 10.272,-1.92 4.32,0 7.872,1.248 3.552,1.152 5.76,2.688 l -2.688,7.2 q -2.208,-1.536 -4.8,-2.496 -2.592,-1.056 -5.952,-1.056 -8.352,0 -12,6.816 -3.647995,6.72 -3.647995,20.352 0,7.296 1.056,12.48 1.152,5.184 3.167995,8.448 2.016,3.264 4.896,4.8 2.88,1.535999 6.432,1.535999 2.976,0 5.088,-0.672 V 74.189501 h 8.64 V 105.4855 q -2.592,1.248 -6.432,2.112 -3.84,0.864 -8.064,0.864 -5.184,0 -9.6,-2.016 -4.415995,-2.112 -7.679995,-6.336 -3.168,-4.319999 -4.992,-10.847999 -1.728,-6.624 -1.728,-15.648 z"
           id="path39644" />
        <path
           d="M -59.155421,106.9255 V 40.397501 h 29.856 v 7.392 h -21.216 v 20.64 h 19.2 v 7.2 h -19.2 v 23.904 h 22.752 v 7.391999 z"
           id="path39646" />
        <path
           d="m -15.379481,41.357501 q 6.7199996,-1.632 12.9599996,-1.632 4.992,0 9.024,1.152 4.0320004,1.152 6.9120004,3.648 2.88,2.496 4.416,6.432 1.632,3.936 1.632,9.504 0,6.912 -2.688,11.232 -2.592,4.224 -7.1040004,6.432 1.1520004,1.92 2.8800004,5.28 1.824,3.264 3.648,7.296 1.92,3.936 3.648,8.16 1.824,4.223999 3.072,8.063999 h -8.64 q -1.056,-2.88 -2.688,-6.528 -1.536,-3.647999 -3.2640004,-7.199999 -1.728,-3.648 -3.456,-6.912 -1.728,-3.36 -3.072,-5.664 -1.53600005,0.192 -3.168,0.288 -1.632,0.096 -3.264,0.096 h -2.4 V 106.9255 h -8.4479996 z m 8.4479996,32.544 h 3.648 q 6.624,0 10.176,-2.976 3.5520004,-3.072 3.5520004,-10.464 0,-3.744 -0.9600004,-6.24 -0.864,-2.592 -2.592,-4.032 -1.632,-1.536 -4.032,-2.208 -2.30400005,-0.672 -5.184,-0.672 -2.496,0 -4.608,0.288 z"
           id="path39648" />
        <path
           d="m 94.540454,97.709501 q -1.92,-6.912 -3.936,-13.248 -2.016,-6.336 -3.936,-11.904 -1.824,-5.664 -3.552,-10.272 -1.728,-4.608 -3.168,-8.064 -0.384,5.472 -0.672,12.096 -0.192,6.528 -0.48,13.44 -0.192,6.912 -0.384,13.92 -0.096,6.911999 -0.192,13.247999 h -8.256 q 0.288,-8.639999 0.576,-17.375999 0.288,-8.832 0.672,-17.28 0.48,-8.544 0.96,-16.608 0.576,-8.064 1.248,-15.264 h 8.544 q 1.728,4.128 3.936,9.888 2.208,5.664 4.416,11.904 2.304,6.24 4.416,12.48 2.112,6.24 3.648,11.424 1.536,-5.184 3.551996,-11.424 2.016,-6.24 4.224,-12.48 2.208,-6.24 4.32,-11.904 2.208,-5.76 3.936,-9.888 h 8.544 q 0.672,7.2 1.152,15.264 0.576,8.064 0.96,16.608 0.48,8.448 0.768,17.28 0.288,8.736 0.576,17.375999 h -8.256 q -0.192,-6.336 -0.384,-13.343999 -0.096,-7.008 -0.384,-14.016 -0.192,-7.104 -0.48,-13.728 -0.288,-6.72 -0.672,-12.288 -0.864,2.4 -2.208,6.048 -1.248,3.552 -2.688,7.776 -1.344,4.224 -2.88,8.736 -1.44,4.416 -2.784,8.544 -1.248,4.128 -2.304,7.584 -0.96,3.36 -1.536,5.472 z"
           id="path39650" />
        <path
           d="m 185.74044,73.709501 q 0,7.776 -1.44,14.208 -1.344,6.336 -4.32,10.944 -2.88,4.511999 -7.392,7.007999 -4.416,2.496 -10.464,2.496 -6.048,0 -10.56,-2.496 -4.416,-2.496 -7.392,-7.007999 -2.88,-4.608 -4.32,-10.944 -1.44,-6.432 -1.44,-14.208 0,-7.776 1.44,-14.208 1.44,-6.432 4.32,-10.944 2.976,-4.608 7.392,-7.104 4.512,-2.592 10.56,-2.592 6.048,0 10.464,2.592 4.512,2.496 7.392,7.104 2.976,4.512 4.32,10.944 1.44,6.432 1.44,14.208 z m -9.216,0 q 0,-6.048 -0.768,-11.04 -0.768,-4.992 -2.496,-8.544 -1.728,-3.648 -4.512,-5.664 -2.688,-2.016 -6.624,-2.016 -3.936,0 -6.72,2.016 -2.688,2.016 -4.416,5.664 -1.728,3.552 -2.592,8.544 -0.768,4.992 -0.768,11.04 0,6.048 0.768,11.04 0.864,4.992 2.592,8.544 1.728,3.552 4.416,5.568 2.784,1.919999 6.72,1.919999 3.936,0 6.624,-1.919999 2.784,-2.016 4.512,-5.568 1.728,-3.552 2.496,-8.544 0.768,-4.992 0.768,-11.04 z"
           id="path39652" />
        <path
           d="m 227.78833,40.397501 v 7.392 h -14.784 V 106.9255 h -8.64 V 47.789501 h -14.784 v -7.392 z"
           id="path39654" />
        <path
           d="m 267.7242,40.397501 h 8.64 V 106.9255 h -8.64 V 76.013501 h -21.888 V 106.9255 h -8.64 V 40.397501 h 8.64 v 28.128 h 21.888 z"
           id="path39656" />
      </g>
      <path
         id="path32439"
         style="fill:#c83737;stroke-width:0.0977469"
         inkscape:transform-center-x="5.8621774e-06"
         inkscape:transform-center-y="-2.9464306e-06"
         d="m 155.48754,74.425299 -5.61332,-0.676253 -2.30187,5.490662 -2.2564,-5.512004 -5.61869,0.623668 3.35694,-4.83575 -3.31685,-4.866994 5.61333,0.676254 2.30187,-5.490664 2.25641,5.512005 5.61868,-0.623669 -3.35694,4.835751 z" />
      <g
         aria-label="flying"
         transform="matrix(0.58887519,-0.12111363,0.12111363,0.58887519,28.170372,-6.0361629)"
         id="text59891"
         style="font-size:96px;line-height:1.25;font-family:'TeX Gyre Chorus';-inkscape-font-specification:'TeX Gyre Chorus';white-space:pre;shape-inside:url(#rect59893);fill:#c83737">
        <path
           d="m 110.48647,261.71072 -0.192,-2.208 c -0.768,0.576 -1.632,1.056 -2.496,1.632 -5.664,3.648 -7.776,4.8 -8.928001,4.8 -1.152,0 -1.824,-1.248 -1.824,-3.36 0,-4.032 7.200001,-33.888 11.040001,-45.888 1.152,-3.552 2.688,-4.992 5.28,-4.992 1.344,0 2.304,0.192 5.184,0.768 l 4.224,-4.992 c -7.488,-1.056 -12,-1.44 -17.28,-1.44 -9.120001,0 -13.344001,1.824 -20.928001,9.12 -5.28,5.088 -6.72,8.448 -10.368,24 l -7.968,0.096 -5.472,3.072 h 4.8 7.872 l -1.152,4.416 -2.784,12.288 c -6.048,26.88 -8.064,30.72 -15.936,30.72 -1.248,0 -2.304,-0.096 -4.992,-0.384 l -4.416,5.952 c 2.112,0.288 3.072,0.384 4.608,0.384 3.264,0 5.76,-0.48 7.296,-1.344 2.592,-1.44 7.68,-6.24 10.176,-9.6 2.976,-3.936 6.432,-12.384 8.64,-20.928 l 3.936,-15.264 1.632,-6.24 h 8.448 l 4.128,-3.168 h -11.712 c 6.24,-26.4 7.776,-28.704 18.816001,-28.704 2.592,0 4.512,0.096 8.64,0.48 -8.16,6.336 -8.256,6.624 -12.384001,24.576 l -6.816,30.048 c -0.192,0.48 -0.192,0.96 -0.192,1.824 0,3.168 1.728,5.952 3.552,5.952 0.96,0 1.632,-0.288 4.032,-2.016 z"
           id="path130" />
        <path
           d="m 149.55833,232.23872 -2.688,1.44 -3.36,1.632 c -0.48,0.288 -1.248,0.576 -2.112,1.056 l -5.856,23.328 c -9.6,5.952 -10.08,6.24 -11.712,6.24 -1.248,0 -2.112,-1.344 -2.112,-3.072 0,-2.112 0.864,-6.528 2.688,-13.344 2.4,-9.504 3.744,-14.88 3.744,-15.744 0,-0.672 -0.48,-1.152 -1.056,-1.152 -1.056,0 -7.2,3.264 -15.264,8.064 l -0.288,2.592 c 4.512,-2.304 5.568,-2.784 6.624,-2.784 0.96,0 1.44,0.576 1.44,1.44 0,1.728 -0.672,4.608 -2.976,13.056 -2.304,8.352 -2.784,10.464 -2.784,12.96 0,3.072 1.44,5.376 3.36,5.376 1.824,0 9.504,-4.608 18.048,-10.752 -3.648,17.568 -3.648,17.568 -4.8,21.12 -1.536,4.896 -4.608,6.72 -10.848,6.72 -2.784,0 -4.896,-0.384 -10.56,-1.728 l -3.84,6.528 c 2.976,0.384 7.2,0.672 10.56,0.672 6.72,0 10.56,-1.824 16.032,-7.68 5.568,-5.952 5.952,-7.008 9.312,-22.656 3.36,-15.456 5.184,-22.656 8.448,-33.312 z"
           id="path132" />
        <path
           d="m 172.11829,263.43872 0.384,-2.88 c -4.704,2.88 -9.408,5.28 -10.272,5.28 -1.056,0 -1.824,-1.152 -1.824,-2.688 0,-3.456 1.152,-7.104 2.016,-10.752 l 2.976,-12.192 c 0.48,-2.016 1.248,-5.088 1.248,-6.24 0,-0.768 -0.288,-1.248 -1.152,-1.248 -2.208,0 -12.192,6.528 -15.072,8.448 l -0.096,2.784 c 2.208,-1.248 5.664,-3.552 7.008,-3.552 1.056,0 1.152,1.056 1.152,1.92 0,2.112 -2.112,9.216 -3.168,13.632 -1.056,4.416 -2.784,8.928 -2.784,13.248 0,2.496 0.96,4.032 2.496,4.032 1.632,0 3.36,-0.864 8.928,-4.512 1.536,-1.056 2.304,-1.632 8.16,-5.28 z m 0.672,-44.544 c -1.728,-2.784 -1.824,-3.072 -2.784,-5.28 -0.096,-0.384 -0.288,-0.864 -0.48,-1.248 -0.576,0.48 -0.96,0.768 -1.344,1.056 -2.592,2.208 -2.784,2.304 -5.28,4.032 0.768,2.304 1.44,3.456 3.648,6.72 l 3.168,-2.88 c 0.576,-0.384 0.864,-0.672 3.072,-2.4 z"
           id="path134" />
        <path
           d="m 215.51027,259.79072 c -9.6,5.472 -9.984,5.664 -10.944,5.664 -0.96,0 -1.536,-1.056 -1.536,-2.592 0,-2.016 0.672,-5.184 2.496,-11.808 4.512,-16.128 4.512,-16.128 4.512,-16.8 0,-1.056 -0.672,-1.632 -1.92,-1.632 -1.44,0 -3.552,0.864 -7.008,3.072 l -13.152,8.16 c 0.864,-3.168 2.304,-9.216 2.304,-9.984 0,-0.672 -0.576,-1.248 -1.248,-1.248 -1.056,0 -7.968,3.552 -15.072,7.776 l -0.576,2.496 c 6.144,-2.784 6.528,-2.88 7.392,-2.88 0.672,0 1.152,0.576 1.152,1.344 0,2.016 -1.824,9.984 -4.224,18.72 l -2.208,7.776 -1.344,5.184 7.2,-2.784 5.664,-22.56 c 12,-7.584 12.288,-7.68 13.632,-7.68 0.672,0 1.056,0.48 1.056,1.248 0,1.44 -0.768,5.088 -3.552,16.032 -2.112,8.544 -2.496,10.176 -2.496,12 0,1.344 0.384,2.592 1.44,4.32 4.416,-2.016 11.04,-6.144 17.76,-11.136 z"
           id="path136" />
        <path
           d="m 255.92618,232.71872 -11.136,0.192 c -5.856,0.096 -7.488,0.384 -10.368,2.112 -4.608,2.88 -7.872,5.568 -9.888,8.16 -2.88,3.744 -6.336,15.36 -6.336,21.216 0,2.4 0.576,4.128 2.112,6.24 l -11.04,9.504 c -4.8,4.224 -7.008,7.392 -7.008,10.08 0,3.552 4.224,5.568 11.52,5.568 8.832,0 15.744,-2.496 22.176,-8.064 4.128,-3.552 5.088,-5.568 7.104,-15.072 l 4.8,-21.6 c 0.384,-2.112 0.864,-3.936 1.248,-5.472 l 1.44,-5.376 c 0.192,-0.864 0.384,-1.536 0.48,-2.112 1.728,-0.48 1.824,-0.48 4.896,-5.376 z m -20.64,44.64 c -1.248,5.76 -2.112,7.968 -3.84,9.792 -2.112,2.4 -6.048,3.648 -11.712,3.648 -6.24,0 -9.6,-1.728 -9.6,-4.8 0,-3.936 2.592,-6.336 29.28,-26.784 z m 14.304,-39.36 c -0.48,0.384 -1.056,0.864 -1.536,1.152 -3.072,2.208 -3.744,3.072 -4.608,5.376 l -3.168,11.232 c -1.92,1.248 -4.224,2.976 -12.288,9.024 -1.728,-1.728 -2.4,-3.264 -2.4,-5.568 0,-3.264 2.304,-11.616 4.32,-16.224 1.92,-3.936 3.936,-4.896 10.944,-4.896 0.672,0 1.824,0 3.072,-0.096 h 2.592 c 1.056,0 2.016,0 3.072,0 z"
           id="path138" />
      </g>
      <path
         style="fill:#c83737;stroke:none;stroke-width:0.394969px;stroke-linecap:butt;stroke-linejoin:miter;stroke-opacity:1"
         d="m 107.05592,163.14271 c 0,0 46.88028,-18.30856 85.03261,-22.0038 1.2657,-0.89189 0.67018,-1.36777 0.67018,-1.36777 -69.22791,5.37363 -88.65739,19.26278 -88.65739,19.26278 7.09581,0.44599 2.95472,4.10882 2.95472,4.10882 z"
         id="path81534"
         sodipodi:nodetypes="cccccc" />
    </g>
  </g>
</svg>
